<?xml version="1.0" encoding="UTF-8"?>
<!DOCTYPE svg PUBLIC "-//W3C//DTD SVG 1.1//EN" "http://www.w3.org/Graphics/SVG/1.1/DTD/svg11.dtd">
<svg xmlns="http://www.w3.org/2000/svg" version="1.1" width="512px" height="512px" style="shape-rendering:geometricPrecision; text-rendering:geometricPrecision; image-rendering:optimizeQuality; fill-rule:evenodd; clip-rule:evenodd" xmlns:xlink="http://www.w3.org/1999/xlink">
<g><path style="opacity:1" fill="#b5e360" d="M 231.5,-0.5 C 235.833,-0.5 240.167,-0.5 244.5,-0.5C 249.394,1.22399 252.894,4.55732 255,9.5C 255.667,25.8333 255.667,42.1667 255,58.5C 253.098,63.4005 249.598,66.5671 244.5,68C 200.637,71.6129 162.304,87.7796 129.5,116.5C 114.74,98.741 100.74,80.4077 87.5,61.5C 129.006,26.0883 177.006,5.42167 231.5,-0.5 Z"/></g>
<g><path style="opacity:0.986" fill="#58ab22" d="M 511.5,232.5 C 511.5,247.5 511.5,262.5 511.5,277.5C 502.32,357.713 464.986,421.213 399.5,468C 361.416,492.972 319.75,507.472 274.5,511.5C 261.833,511.5 249.167,511.5 236.5,511.5C 146.671,501.857 78.5039,458.523 32,381.5C 14.184,348.892 3.35064,314.226 -0.5,277.5C -0.5,267.167 -0.5,256.833 -0.5,246.5C 22.5037,248.434 45.5037,250.434 68.5,252.5C 69.4747,319.627 97.1414,372.46 151.5,411C 207.283,445.728 265.95,451.395 327.5,428C 400.148,393.576 438.481,336.076 442.5,255.5C 442.131,208.705 426.797,167.705 396.5,132.5C 390.65,138.184 384.65,143.684 378.5,149C 373.883,150.297 370.05,149.13 367,145.5C 365.366,116.548 365.033,87.5484 366,58.5C 366.232,55.262 367.732,52.762 370.5,51C 399.452,49.3661 428.452,49.0327 457.5,50C 465.19,52.2189 467.356,57.0522 464,64.5C 457.833,70.6667 451.667,76.8333 445.5,83C 483.654,125.602 505.654,175.435 511.5,232.5 Z"/></g>
<g><path style="opacity:1" fill="#65be00" d="M 87.5,61.5 C 100.74,80.4077 114.74,98.741 129.5,116.5C 90.752,153.347 70.4187,198.68 68.5,252.5C 45.5037,250.434 22.5037,248.434 -0.5,246.5C -0.5,241.833 -0.5,237.167 -0.5,232.5C 6.91781,163.993 36.2511,106.993 87.5,61.5 Z"/></g>
<g><path style="opacity:0.956" fill="#d1cdb2" d="M 237.5,84.5 C 249.171,84.3335 260.838,84.5001 272.5,85C 278.86,84.4711 284.36,86.3044 289,90.5C 291.426,98.4407 288.426,103.107 280,104.5C 257.596,101.029 235.429,102.196 213.5,108C 203.178,111.44 193.011,115.274 183,119.5C 175.815,117.976 173.148,113.643 175,106.5C 175.785,104.714 176.951,103.214 178.5,102C 197.319,92.8838 216.986,87.0505 237.5,84.5 Z"/></g>
<g><path style="opacity:0.972" fill="#fec551" d="M 317.5,99.5 C 325.986,99.1514 329.82,103.151 329,111.5C 313.556,156.501 297.722,201.334 281.5,246C 301.5,246.333 321.5,246.667 341.5,247C 346.472,250.527 347.638,255.027 345,260.5C 295.5,310 246,359.5 196.5,409C 191.792,411.883 187.292,411.383 183,407.5C 181.578,404.97 181.245,402.303 182,399.5C 197.807,354.577 213.307,309.577 228.5,264.5C 209.497,264.667 190.497,264.5 171.5,264C 165.184,261.393 163.35,256.893 166,250.5C 215.729,199.271 266.229,148.938 317.5,99.5 Z"/></g>
<g><path style="opacity:0.933" fill="#d0cdb1" d="M 150.5,120.5 C 160.077,120.664 163.577,125.33 161,134.5C 112.014,176.394 94.0138,229.06 107,292.5C 116.77,329.083 136.937,358.416 167.5,380.5C 172.781,388.601 170.781,393.934 161.5,396.5C 159.701,396.423 158.034,395.923 156.5,395C 105.573,356.299 81.7397,304.799 85,240.5C 89.9432,190.923 111.777,150.923 150.5,120.5 Z"/></g>
<g><path style="opacity:0.933" fill="#d0cdb1" d="M 238.5,127.5 C 243.297,127.121 247.964,127.621 252.5,129C 255.428,132.257 256.262,136.091 255,140.5C 253.363,142.81 251.196,144.31 248.5,145C 197.985,151.005 164.818,178.172 149,226.5C 139.872,264.097 147.538,297.763 172,327.5C 177.367,332.532 182.367,337.865 187,343.5C 188.331,353.167 184.164,357 174.5,355C 139.25,324.639 123.75,286.139 128,239.5C 136.355,186.819 165.522,151.319 215.5,133C 223.253,130.955 230.919,129.121 238.5,127.5 Z"/></g>
<g><path style="opacity:0.933" fill="#d0cdb1" d="M 330.5,154.5 C 333.425,154.46 336.091,155.293 338.5,157C 380.957,196.749 393.457,244.582 376,300.5C 370.226,315.228 362.059,328.394 351.5,340C 346.612,341.901 342.446,340.734 339,336.5C 338.333,333.5 338.333,330.5 339,327.5C 369.045,289.128 373.711,247.795 353,203.5C 349.582,197.663 345.916,191.996 342,186.5C 336.196,179.942 330.196,173.609 324,167.5C 322.493,161.179 324.66,156.846 330.5,154.5 Z"/></g>
<g><path style="opacity:0.935" fill="#d0cdb1" d="M 391.5,160.5 C 395.057,160.911 398.224,162.244 401,164.5C 430.407,215.212 434.407,267.878 413,322.5C 385.847,380.973 340.347,415.14 276.5,425C 259.032,427.363 241.699,426.696 224.5,423C 218.733,416.682 219.4,411.349 226.5,407C 291.146,414.914 342.979,393.081 382,341.5C 416.174,286.126 417.174,230.126 385,173.5C 383.493,167.179 385.66,162.846 391.5,160.5 Z"/></g>
<g><path style="opacity:0.956" fill="#d1cdb1" d="M 320.5,344.5 C 329.658,343.491 333.492,347.491 332,356.5C 330.878,358.624 329.378,360.457 327.5,362C 304.488,377.336 279.155,384.336 251.5,383C 245.335,378.015 245.002,372.682 250.5,367C 276.249,366.572 299.583,359.072 320.5,344.5 Z"/></g>
</svg>
